<?xml version="1.0" encoding="UTF-8"?>
<svg width="24px" height="24px" viewBox="0 0 24 24" version="1.1" xmlns="http://www.w3.org/2000/svg" xmlns:xlink="http://www.w3.org/1999/xlink">
    <title>Document</title>
    <g stroke="none" stroke-width="1" fill="none" fill-rule="evenodd">
        <path d="M14,2 L20,8 L20,20 C20,21.1045695 19.1045695,22 18,22 L6,22 C4.8954305,22 4,21.1045695 4,20 L4,4 C4,2.8954305 4.8954305,2 6,2 L14,2 Z M13,4 L6,4 L6,20 L18,20 L18,9 L13,9 L13,4 Z M15,4.82929 L15,7 L17.1707,7 L15,4.82929 Z M8,12 L16,12 L16,14 L8,14 L8,12 Z M8,16 L16,16 L16,18 L8,18 L8,16 Z M8,8 L11,8 L11,10 L8,10 L8,8 Z" fill="#000000"></path>
    </g>
</svg>
