<?xml version="1.0" encoding="UTF-8"?>
<svg width="200px" height="200px" viewBox="0 0 200 200" version="1.1" xmlns="http://www.w3.org/2000/svg" xmlns:xlink="http://www.w3.org/1999/xlink">
    <title>No Notifications</title>
    <g stroke="none" stroke-width="1" fill="none" fill-rule="evenodd">
        <g transform="translate(25.000000, 25.000000)" fill-rule="nonzero">
            <circle fill="#F5F5F5" cx="75" cy="75" r="75"></circle>
            <path d="M75,30 C61.193,30 50,41.193 50,55 C50,62.124 53.343,68.497 58.618,72.635 C58.618,72.635 59.011,73.031 59.101,73.119 C59.849,73.707 59.999,74.719 59.411,75.467 C58.823,76.215 57.811,76.365 57.063,75.777 C56.961,75.677 56.526,75.243 56.526,75.243 C50.195,70.209 46.154,62.55 46.154,54.038 C46.154,38.193 59.155,25.192 75,25.192 C90.845,25.192 103.846,38.193 103.846,54.038 C103.846,62.55 99.805,70.209 93.474,75.243 C93.474,75.243 93.039,75.677 92.937,75.777 C92.189,76.365 91.177,76.215 90.589,75.467 C90.001,74.719 90.151,73.707 90.899,73.119 C90.989,73.031 91.382,72.635 91.382,72.635 C96.657,68.497 100,62.124 100,55 C100,41.193 88.807,30 75,30 Z" fill="#CCCCCC"></path>
            <path d="M75,125 C70.029,125 66,120.971 66,116 L84,116 C84,120.971 79.971,125 75,125 Z" fill="#CCCCCC"></path>
            <path d="M114,104 L36,104 C34.895,104 34,103.105 34,102 C34,100.895 34.895,100 36,100 L36,79 C36,58.013 53.013,41 74,41 C94.987,41 112,58.013 112,79 L112,100 C113.105,100 114,100.895 114,102 C114,103.105 113.105,104 112,104 Z M40,100 L108,100 L108,79 C108,60.222 92.778,45 74,45 C55.222,45 40,60.222 40,79 L40,100 Z" fill="#CCCCCC"></path>
            <path d="M105,40 L45,100" stroke="#FF6B6B" stroke-width="5" stroke-linecap="round"></path>
            <path d="M45,40 L105,100" stroke="#FF6B6B" stroke-width="5" stroke-linecap="round"></path>
        </g>
    </g>
</svg>
